<svg width="44" height="44" viewBox="0 0 44 44" fill="none" xmlns="http://www.w3.org/2000/svg">
<path d="M15.514 2.86139C25.9663 -0.80777 41.5665 7.75361 41.9665 18.9019C42.3665 30.0502 39.323 40.9257 25.3054 41.8847C11.2878 42.835 3.34857 37.934 2.15725 26.249C0.965924 14.564 6.65296 5.97622 15.514 2.86139Z" fill="white"/>
<path d="M28.1129 31.7263C29.9597 31.7263 30.303 29.1167 30.2439 27.8119V23.5417V17.3142C30.2439 13.3287 28.1129 13.0763 26.6923 13.044C25.6599 13.0205 24.1065 13.0594 22.4305 13.044C19.8786 13.0204 17.0423 12.9581 15.3274 13.044C12.4862 13.1863 11.8942 14.8826 11.9534 15.535C11.8942 19.4494 11.8114 26.602 11.9534 28.8795C12.0955 31.157 14.0844 32.0822 15.3274 32.0822C17.4603 32.0822 19.1913 32.1785 22.0753 32.0822C24.4737 32.0021 27.2744 31.7263 28.1129 31.7263Z" stroke="#E9869A" stroke-linecap="round" stroke-linejoin="round"/>
<path d="M26.875 16H26.9125" stroke="#E9869A" stroke-linecap="round" stroke-linejoin="round"/>
<ellipse cx="20.875" cy="22.9375" rx="5.625" ry="5.4375" stroke="#EBA47B"/>
<path d="M21.8063 24.7738C20.9641 25.5769 19.5869 25.4997 18.7303 24.6013C17.8736 23.7029 17.862 22.3236 18.7042 21.5205" stroke="#EBA47B" stroke-linecap="round"/>
<path d="M30.4011 11.1699L31.9544 12.1862" stroke="#E9869A" stroke-linecap="round" stroke-linejoin="round"/>
<path d="M31.9636 11.1841L30.3918 12.1714" stroke="#E9869A" stroke-linecap="round" stroke-linejoin="round"/>
<path d="M31.2 10.75L31.1558 12.6056" stroke="#E9869A" stroke-linecap="round" stroke-linejoin="round"/>
</svg>
