<svg width="24" height="24" viewBox="0 0 24 24" fill="none" xmlns="http://www.w3.org/2000/svg">
    <path d="M16.9391 7.23206L16.9631 7.25606C17.2761 7.56906 17.5461 7.83906 17.7331 8.08406C17.9341 8.34706 18.0861 8.64006 18.0861 9.00006C18.0861 9.36006 17.9331 9.65306 17.7331 9.91606C17.5461 10.1611 17.2761 10.4311 16.9631 10.7441L16.9391 10.7681L9.7451 17.9621L9.7121 17.9951C9.5501 18.1571 9.4071 18.3001 9.2281 18.4021C9.0491 18.5041 8.8521 18.5531 8.6291 18.6091L8.5841 18.6191L5.9511 19.2771L5.9301 19.2831C5.76881 19.3288 5.60436 19.3626 5.4381 19.3841C5.2831 19.4001 5.0221 19.3971 4.8131 19.1871C4.6041 18.9771 4.6001 18.7161 4.6151 18.5611C4.63757 18.4047 4.66929 18.2497 4.7101 18.0971L4.7171 18.0701L5.3811 15.4161L5.3921 15.3721C5.4481 15.1481 5.4961 14.9521 5.5981 14.7721C5.6991 14.5931 5.8431 14.4501 6.0051 14.2871L6.0381 14.2551L13.2321 7.06106L13.2561 7.03706C13.5691 6.72406 13.8391 6.45406 14.0841 6.26706C14.3471 6.06606 14.6401 5.91406 15.0001 5.91406C15.3601 5.91406 15.6531 6.06706 15.9161 6.26706C16.1611 6.45406 16.4311 6.72406 16.7441 7.03706L16.7681 7.06106L16.9391 7.23206ZM16.9391 7.23206L16.5861 7.58606" stroke="#828282"/>
    <path d="M12.5 7.5L15.5 5.5L18.5 8.5L16.5 11.5L12.5 7.5Z" fill="#828282"/>
</svg>

