<svg width="90" height="30" viewBox="0 0 90 30" fill="none" xmlns="http://www.w3.org/2000/svg">
    <path fill-rule="evenodd" clip-rule="evenodd" d="M19.0483 7.2714C19.0827 3.58966 22.0952 0.632902 25.7769 0.667289C38.0881 0.782275 50.4079 1.03928 62.7305 1.53672C65.6014 1.65262 68.3742 1.78457 71.1193 1.91521C74.7906 2.08993 78.4125 2.2623 82.1539 2.39075C82.3218 2.39652 82.4929 2.40305 82.6347 2.411L82.6376 2.41116C82.6673 2.41272 82.8903 2.42445 83.1411 2.45541C83.2111 2.46405 83.412 2.48937 83.6647 2.54098C83.784 2.56533 84.0409 2.6206 84.3581 2.72173C84.362 2.723 84.3673 2.72465 84.3739 2.7267C84.5391 2.77813 85.5092 3.08012 86.4872 3.85907C87.0045 4.27117 88.2496 5.3833 88.7757 7.35728C89.4084 9.73166 88.6236 11.8112 87.6485 13.0988C86.8386 14.1684 85.9162 14.7123 85.547 14.9154C85.4031 14.9946 85.2657 15.0631 85.1385 15.1222C85.7365 15.9638 86.298 17.1619 86.369 18.6807C86.4563 20.5489 85.7585 21.991 85.1422 22.8582C84.1525 24.2508 82.8959 24.862 82.6542 24.9796C82.6467 24.9832 82.6402 24.9863 82.6347 24.989C81.948 25.3264 81.3376 25.4721 81.217 25.5009C81.2121 25.5021 81.2079 25.5031 81.2047 25.5039C80.6348 25.642 80.008 25.712 79.7895 25.7364L79.7653 25.7391C79.6665 25.7502 79.5634 25.7612 79.4577 25.772C79.2633 26.127 79.0335 26.4693 78.7681 26.7941C77.5931 28.2318 76.1594 28.8178 75.3064 29.0596C74.4734 29.2958 73.7741 29.325 73.4658 29.3317C73.1498 29.3387 72.8734 29.3243 72.7961 29.3202C70.1296 29.304 67.374 29.1577 64.8237 29.0224C63.8477 28.9706 62.9017 28.9204 62.0024 28.8797L61.2645 28.8463C53.9453 28.5147 46.7294 28.1879 39.514 28.0651C35.7475 28.001 32.2426 27.9644 28.904 28.2445C28.8631 28.248 28.8493 28.2496 28.7745 28.2587C28.7417 28.2627 28.6973 28.2681 28.6339 28.2756L28.6297 28.2761C28.5541 28.2851 28.3519 28.3092 28.1204 28.3247C27.9075 28.3389 27.4067 28.3664 26.7889 28.295C26.1583 28.2222 25.0717 28.011 23.9297 27.2951C23.2836 26.89 22.7484 26.4048 22.3145 25.8823C17.7531 25.8066 13.1939 25.7199 8.63712 25.6253C8.63865 25.6253 8.63851 25.6253 8.63345 25.6252L8.44269 25.6214C8.32901 25.619 8.17765 25.6158 8.02024 25.6121C7.86503 25.6085 7.69385 25.6042 7.54372 25.5997C7.46936 25.5974 7.38899 25.5948 7.3127 25.5918L7.31145 25.5917C7.27483 25.5903 7.19129 25.5869 7.09105 25.5809C7.02791 25.5779 6.81733 25.5669 6.56455 25.5356C6.56019 25.5351 6.55497 25.5345 6.54892 25.5337C6.3777 25.5131 5.54071 25.4124 4.5924 24.9822C4.09177 24.7551 3.00062 24.1918 2.06802 22.9891C0.94742 21.5439 0.423851 19.6345 0.774664 17.7029C1.42933 14.0984 4.38369 12.8373 5.06125 12.5817C5.91894 12.2581 6.67234 12.1782 6.85291 12.1591C6.85871 12.1585 6.86391 12.1579 6.86852 12.1574C6.8755 12.1567 6.88273 12.1559 6.89015 12.1552C6.93253 12.1454 6.95636 12.1394 6.98204 12.1324C8.24448 11.7889 9.48295 11.4085 10.8433 10.9907C10.9264 10.9651 11.0099 10.9395 11.094 10.9137C12.5173 10.4767 14.07 10.003 15.6978 9.57623C16.9536 9.24697 18.0984 8.95208 19.1845 8.68255C19.0909 8.22721 19.0438 7.75508 19.0483 7.2714ZM82.1277 2.41254C82.1367 2.41224 82.1452 2.41198 82.1532 2.41176C82.2562 2.40881 82.277 2.41114 82.1532 2.41234C82.1492 2.41238 82.145 2.41241 82.1407 2.41245C82.1368 2.41248 82.1325 2.41251 82.1277 2.41254Z" fill="#D34D3A"/>
</svg>

