<svg width="22" height="22" viewBox="0 0 22 22" fill="none" xmlns="http://www.w3.org/2000/svg">
    <path d="M19.9649 5.29876C20.0864 5.16844 20.1525 4.99606 20.1493 4.81795C20.1462 4.63984 20.074 4.4699 19.9481 4.34394C19.8221 4.21798 19.6522 4.14583 19.4741 4.14269C19.296 4.13954 19.1236 4.20566 18.9933 4.3271L12.1183 11.2021C12.0507 11.265 11.9965 11.3409 11.959 11.4253C11.9214 11.5096 11.9012 11.6006 11.8995 11.693C11.8979 11.7853 11.9149 11.877 11.9495 11.9626C11.9841 12.0482 12.0355 12.1259 12.1008 12.1912C12.1661 12.2565 12.2438 12.308 12.3295 12.3425C12.4151 12.3771 12.5068 12.3941 12.5991 12.3925C12.6914 12.3908 12.7824 12.3706 12.8667 12.3331C12.9511 12.2955 13.027 12.2413 13.0899 12.1738L19.9649 5.29876ZM20.118 6.44276C20.1504 6.59737 20.1666 6.75687 20.1666 6.92126V13.2463C20.1666 13.5532 20.1061 13.8572 19.9887 14.1408C19.8712 14.4244 19.699 14.6821 19.4819 14.8991C19.2649 15.1162 19.0072 15.2884 18.7236 15.4058C18.44 15.5233 18.1361 15.5838 17.8291 15.5838H4.17075C3.86379 15.5838 3.55983 15.5233 3.27623 15.4058C2.99263 15.2884 2.73495 15.1162 2.51789 14.8991C2.30083 14.6821 2.12865 14.4244 2.01118 14.1408C1.89371 13.8572 1.83325 13.5532 1.83325 13.2463V6.92126C1.83325 6.30132 2.07952 5.70677 2.51789 5.2684C2.95626 4.83003 3.55081 4.58376 4.17075 4.58376H17.4395L16.0645 5.95876H4.17075C3.63909 5.95876 3.20825 6.3896 3.20825 6.92126V13.2463C3.20825 13.7779 3.63909 14.2088 4.17075 14.2088H17.8291C18.3608 14.2088 18.7916 13.7779 18.7916 13.2463V7.76918L20.118 6.44276ZM4.12492 8.4796C4.12492 8.29726 4.19735 8.12239 4.32628 7.99346C4.45521 7.86453 4.63008 7.7921 4.81242 7.7921H6.64575C6.82809 7.7921 7.00296 7.86453 7.13189 7.99346C7.26082 8.12239 7.33325 8.29726 7.33325 8.4796C7.33325 8.66193 7.26082 8.8368 7.13189 8.96573C7.00296 9.09466 6.82809 9.1671 6.64575 9.1671H4.81242C4.63008 9.1671 4.45521 9.09466 4.32628 8.96573C4.19735 8.8368 4.12492 8.66193 4.12492 8.4796ZM4.12492 11.6879C4.12492 11.5056 4.19735 11.3307 4.32628 11.2018C4.45521 11.0729 4.63008 11.0004 4.81242 11.0004H9.39575C9.57809 11.0004 9.75296 11.0729 9.88189 11.2018C10.0108 11.3307 10.0833 11.5056 10.0833 11.6879C10.0833 11.8703 10.0108 12.0451 9.88189 12.1741C9.75296 12.303 9.57809 12.3754 9.39575 12.3754H4.81242C4.63008 12.3754 4.45521 12.303 4.32628 12.1741C4.19735 12.0451 4.12492 11.8703 4.12492 11.6879Z" fill="#CF7A48"/>
</svg>

