<svg width="28" height="28" viewBox="0 0 28 28" fill="none" xmlns="http://www.w3.org/2000/svg">
    <path d="M6.38166 14.6183C6.21865 14.4538 6.1272 14.2316 6.1272 14C6.1272 13.7684 6.21865 13.5462 6.38166 13.3817L12.215 7.54835C12.2951 7.46238 12.3917 7.39343 12.499 7.34561C12.6064 7.29778 12.7222 7.27207 12.8397 7.26999C12.9572 7.26792 13.0739 7.28953 13.1829 7.33354C13.2918 7.37755 13.3908 7.44305 13.4739 7.52614C13.557 7.60923 13.6225 7.7082 13.6665 7.81715C13.7105 7.92611 13.7321 8.04281 13.73 8.16029C13.7279 8.27778 13.7022 8.39365 13.6544 8.50098C13.6066 8.60831 13.5376 8.70491 13.4517 8.78502L9.11166 13.125L21 13.125C21.2321 13.125 21.4546 13.2172 21.6187 13.3813C21.7828 13.5454 21.875 13.768 21.875 14C21.875 14.2321 21.7828 14.4546 21.6187 14.6187C21.4546 14.7828 21.2321 14.875 21 14.875L9.11166 14.875L13.4517 19.215C13.6062 19.3809 13.6904 19.6003 13.6864 19.827C13.6824 20.0536 13.5905 20.2699 13.4302 20.4302C13.2699 20.5906 13.0536 20.6824 12.8269 20.6864C12.6002 20.6904 12.3809 20.6062 12.215 20.4517L6.38166 14.6183Z" fill="black"/>
</svg>

