<svg width="24" height="24" viewBox="0 0 24 24" fill="none" xmlns="http://www.w3.org/2000/svg">
    <path d="M17.3449 8.1381C17.3925 8.1834 17.4307 8.23762 17.4572 8.29767C17.4838 8.35772 17.4983 8.42242 17.4999 8.48808C17.5015 8.55373 17.4901 8.61905 17.4664 8.68031C17.4428 8.74157 17.4073 8.79756 17.3619 8.8451L10.6949 15.8451C10.6482 15.8941 10.5921 15.9331 10.5299 15.9598C10.4676 15.9865 10.4006 16.0002 10.3329 16.0002C10.2653 16.0002 10.1983 15.9865 10.136 15.9598C10.0738 15.9331 10.0176 15.8941 9.97095 15.8451L6.63795 12.3451C6.59264 12.2976 6.55714 12.2416 6.53348 12.1803C6.50981 12.119 6.49844 12.0537 6.50002 11.9881C6.5016 11.9224 6.5161 11.8577 6.54268 11.7977C6.56926 11.7376 6.60741 11.6834 6.65495 11.6381C6.70249 11.5928 6.75848 11.5573 6.81974 11.5336C6.881 11.51 6.94632 11.4986 7.01197 11.5002C7.07762 11.5018 7.14232 11.5162 7.20237 11.5428C7.26242 11.5694 7.31664 11.6076 7.36195 11.6551L10.3329 14.7751L16.6379 8.1551C16.6832 8.10755 16.7375 8.06939 16.7975 8.04281C16.8576 8.01622 16.9223 8.00172 16.9879 8.00014C17.0536 7.99857 17.1189 8.00994 17.1802 8.03361C17.2414 8.05728 17.2974 8.09278 17.3449 8.1381Z" fill="#828282"/>
</svg>

