<svg width="44" height="44" viewBox="0 0 44 44" fill="none" xmlns="http://www.w3.org/2000/svg">
<path d="M15.514 2.86139C25.9663 -0.80777 41.5665 7.75361 41.9665 18.9019C42.3665 30.0502 39.323 40.9257 25.3054 41.8847C11.2878 42.835 3.34857 37.934 2.15725 26.249C0.965924 14.564 6.65296 5.97622 15.514 2.86139Z" fill="white"/>
<path d="M19.3125 24.7623C15.9264 23.7568 14.8155 23.2056 11.8278 22.2001C10.1926 21.6498 12.0396 20.0449 13.875 19.4373C19.2993 17.6417 30.4199 12.9547 30.7428 13.7162C30.7523 13.7387 30.7492 13.7642 30.7474 13.7885C30.6975 14.4625 29.9335 24.6931 29.3557 27.0266C28.1108 32.0543 26.4875 31.1694 22.9819 28.4344C21.6931 27.4288 21.5478 27.4691 20.5917 28.4344C20.1046 28.9262 19.5279 29.5084 19.0091 30.0323C18.4703 30.5763 17.545 30.3375 17.3365 29.6007L16.7845 27.6498C16.6772 27.2706 16.8026 26.8638 17.1047 26.6108L24.7745 20.189" stroke="#5476B5" stroke-linecap="round" stroke-linejoin="round"/>
</svg>
