<svg width="28" height="28" viewBox="0 0 28 28" fill="none" xmlns="http://www.w3.org/2000/svg">
    <path d="M20.125 13.5C20.8212 13.5 21.4889 13.7766 21.9812 14.2688C22.4734 14.7611 22.75 15.4288 22.75 16.125V17C22.75 20.4492 19.495 26 14 26C8.505 26 5.25 20.4492 5.25 17V16.125C5.25 15.4288 5.52656 14.7611 6.01884 14.2688C6.51113 13.7766 7.17881 13.5 7.875 13.5H20.125ZM20.125 15.25H7.875C7.64294 15.25 7.42038 15.3422 7.25628 15.5063C7.09219 15.6704 7 15.8929 7 16.125V17C7 19.5165 9.506 24.25 14 24.25C18.494 24.25 21 19.5165 21 17V16.125C21 15.8929 20.9078 15.6704 20.7437 15.5063C20.5796 15.3422 20.3571 15.25 20.125 15.25ZM14 2.125C15.2764 2.125 16.5004 2.63203 17.403 3.53455C18.3055 4.43707 18.8125 5.66115 18.8125 6.9375C18.8125 8.21385 18.3055 9.43793 17.403 10.3405C16.5004 11.243 15.2764 11.75 14 11.75C12.7236 11.75 11.4996 11.243 10.597 10.3405C9.69453 9.43793 9.1875 8.21385 9.1875 6.9375C9.1875 5.66115 9.69453 4.43707 10.597 3.53455C11.4996 2.63203 12.7236 2.125 14 2.125ZM14 3.875C13.1878 3.875 12.4088 4.19766 11.8345 4.77199C11.2602 5.34632 10.9375 6.12527 10.9375 6.9375C10.9375 7.74973 11.2602 8.52868 11.8345 9.10301C12.4088 9.67734 13.1878 10 14 10C14.8122 10 15.5912 9.67734 16.1655 9.10301C16.7398 8.52868 17.0625 7.74973 17.0625 6.9375C17.0625 6.12527 16.7398 5.34632 16.1655 4.77199C15.5912 4.19766 14.8122 3.875 14 3.875Z" fill="black"/>
</svg>

