<svg width="22" height="22" viewBox="0 0 22 22" fill="none" xmlns="http://www.w3.org/2000/svg">
    <path d="M11.0001 2.97949C11.1824 2.97949 11.3573 3.05192 11.4862 3.18086C11.6151 3.30979 11.6876 3.48466 11.6876 3.66699C11.6876 3.84933 11.6151 4.0242 11.4862 4.15313C11.3573 4.28206 11.1824 4.35449 11.0001 4.35449C9.2375 4.35449 7.5471 5.05468 6.30077 6.30101C5.05443 7.54735 4.35425 9.23774 4.35425 11.0003C4.35425 12.7629 5.05443 14.4533 6.30077 15.6996C7.5471 16.946 9.2375 17.6462 11.0001 17.6462C11.1824 17.6462 11.3573 17.7186 11.4862 17.8475C11.6151 17.9765 11.6876 18.1513 11.6876 18.3337C11.6876 18.516 11.6151 18.6909 11.4862 18.8198C11.3573 18.9487 11.1824 19.0212 11.0001 19.0212C8.87282 19.0212 6.83269 18.1761 5.3285 16.6719C3.8243 15.1677 2.97925 13.1276 2.97925 11.0003C2.97925 8.87307 3.8243 6.83294 5.3285 5.32874C6.83269 3.82454 8.87282 2.97949 11.0001 2.97949Z" fill="black"/>
    <path d="M15.0976 8.73626C14.9761 8.60594 14.91 8.43356 14.9132 8.25545C14.9163 8.07734 14.9885 7.9074 15.1144 7.78144C15.2404 7.65548 15.4103 7.58333 15.5884 7.58019C15.7665 7.57704 15.9389 7.64316 16.0692 7.7646L18.8192 10.5146C18.948 10.6435 19.0203 10.8182 19.0203 11.0004C19.0203 11.1826 18.948 11.3574 18.8192 11.4863L16.0692 14.2363C16.0063 14.3038 15.9304 14.358 15.8461 14.3956C15.7617 14.4331 15.6707 14.4533 15.5784 14.455C15.4861 14.4566 15.3944 14.4396 15.3088 14.405C15.2232 14.3705 15.1454 14.319 15.0801 14.2537C15.0148 14.1884 14.9634 14.1107 14.9288 14.0251C14.8942 13.9395 14.8772 13.8478 14.8789 13.7555C14.8805 13.6631 14.9007 13.5721 14.9383 13.4878C14.9759 13.4034 15.03 13.3275 15.0976 13.2646L16.6742 11.6879H9.16675C8.98441 11.6879 8.80954 11.6155 8.68061 11.4866C8.55168 11.3576 8.47925 11.1828 8.47925 11.0004C8.47925 10.8181 8.55168 10.6432 8.68061 10.5143C8.80954 10.3854 8.98441 10.3129 9.16675 10.3129H16.6742L15.0976 8.73626Z" fill="black"/>
</svg>

