<svg width="44" height="44" viewBox="0 0 44 44" fill="none" xmlns="http://www.w3.org/2000/svg">
    <path d="M15.514 2.86139C25.9663 -0.80777 41.5665 7.75361 41.9665 18.9019C42.3665 30.0502 39.323 40.9257 25.3054 41.8847C11.2878 42.835 3.34857 37.934 2.15725 26.249C0.965924 14.564 6.65296 5.97622 15.514 2.86139Z" fill="white"/>
    <path d="M17.9903 30.0761C17.9903 30.0761 14.3653 31.3261 13.3028 31.9511C14.2403 28.0136 11.875 24.9383 11.875 22.2011C11.875 17.8886 13.3028 13.0136 21.625 12.6386C30.139 12.2549 34.1875 21.0623 31.1875 27.0623C29.6875 30.8123 21.2637 34.7011 17.9903 30.0761Z" stroke="#69D1C2" stroke-linecap="round" stroke-linejoin="round"/>
    <path d="M19.6108 16.9968C18.4416 16.2582 17.3119 17.3123 17.1733 18.8718C16.4233 27.3093 24.0626 27.4373 25.4233 26.7468C26.1126 26.397 28.0001 25.6204 26.3608 23.7468C25.0483 22.2468 23.7358 23.7468 22.9858 23.7468C22.2358 23.7468 20.3126 21.6248 20.6876 21.0623C21.0626 20.4998 22.1876 18.6248 19.6108 16.9968Z" stroke="#69D1C2" stroke-linecap="round" stroke-linejoin="round"/>
</svg>

