<svg width="24" height="24" viewBox="0 0 24 24" fill="none" xmlns="http://www.w3.org/2000/svg">
    <path d="M17.3451 8.1381C17.3926 8.1834 17.4308 8.23762 17.4574 8.29767C17.4839 8.35772 17.4984 8.42242 17.5 8.48808C17.5016 8.55373 17.4902 8.61905 17.4666 8.68031C17.4429 8.74157 17.4074 8.79756 17.3621 8.8451L10.6951 15.8451C10.6484 15.8941 10.5922 15.9331 10.53 15.9598C10.4678 15.9865 10.4008 16.0002 10.3331 16.0002C10.2654 16.0002 10.1984 15.9865 10.1362 15.9598C10.0739 15.9331 10.0178 15.8941 9.97107 15.8451L6.63807 12.3451C6.59276 12.2976 6.55726 12.2416 6.5336 12.1803C6.50993 12.119 6.49857 12.0537 6.50014 11.9881C6.50172 11.9224 6.51622 11.8577 6.5428 11.7977C6.56938 11.7376 6.60753 11.6834 6.65507 11.6381C6.70261 11.5928 6.7586 11.5573 6.81986 11.5336C6.88112 11.51 6.94644 11.4986 7.01209 11.5002C7.07774 11.5018 7.14244 11.5162 7.20249 11.5428C7.26254 11.5694 7.31676 11.6076 7.36207 11.6551L10.3331 14.7751L16.6381 8.1551C16.6834 8.10755 16.7376 8.06939 16.7976 8.04281C16.8577 8.01622 16.9224 8.00172 16.988 8.00014C17.0537 7.99857 17.119 8.00994 17.1803 8.03361C17.2415 8.05728 17.2975 8.09278 17.3451 8.1381Z" fill="#CF7A48"/>
</svg>

