<svg width="16" height="16" viewBox="0 0 16 16" fill="none" xmlns="http://www.w3.org/2000/svg">
    <path d="M3.64671 4.00946V12.3521C3.64662 12.5904 3.69348 12.8263 3.78462 13.0464C3.87575 13.2665 4.00936 13.4665 4.17782 13.635C4.34629 13.8035 4.5463 13.9371 4.76642 14.0282C4.98654 14.1193 5.22247 14.1662 5.46071 14.1661H10.5394C11.0203 14.1661 11.4815 13.9751 11.8216 13.635C12.1617 13.2949 12.3527 12.8337 12.3527 12.3528V4.00879M2.19604 4.00946H13.804" stroke="#828282" stroke-linecap="round" stroke-linejoin="round"/>
    <path d="M5.82337 4.00968V2.92101C5.82319 2.77803 5.85123 2.63641 5.90589 2.50429C5.96055 2.37216 6.04074 2.25212 6.14188 2.15105C6.24301 2.04998 6.3631 1.96986 6.49526 1.91528C6.62742 1.8607 6.76905 1.83275 6.91203 1.83301H9.08803C9.23102 1.83275 9.37265 1.8607 9.5048 1.91528C9.63696 1.96986 9.75705 2.04998 9.85819 2.15105C9.95932 2.25212 10.0395 2.37216 10.0942 2.50429C10.1488 2.63641 10.1769 2.77803 10.1767 2.92101V4.00968" stroke="#828282" stroke-linecap="round" stroke-linejoin="round"/>
</svg>

