<svg width="52" height="52" viewBox="0 0 52 52" fill="none" xmlns="http://www.w3.org/2000/svg">
    <path d="M22.1229 47.4499C21.6102 44.3727 17.9869 40.932 15.9897 38.7344C13.0722 35.5241 10.3359 31.7426 6.44723 29.64C5.39095 29.0688 4.41779 28.6114 6.14057 28.6114C8.48758 28.6114 10.759 29.1921 13.1035 29.261C14.1086 29.2906 21.1319 30.7729 20.788 29.225C20.3826 27.4 18.3821 26.119 17.7575 24.2447C17.1231 22.3408 16.1194 20.0863 15.9717 18.0915C15.841 16.3265 19.4781 18.8119 21.0586 19.6072C24.0264 21.1007 26.865 22.8466 29.8796 24.2447C30.9224 24.7283 32.8036 25.8828 32.8379 24.0642C32.9609 17.5445 33.9127 11.0738 35.8865 4.84685C36.6286 2.50559 36.4377 5.12868 36.3375 6.05583C35.9634 9.51667 36.0052 12.8695 37.528 16.0886C40.0831 21.4897 43.4905 26.569 46.7999 31.5347" stroke="#FFCE5C" stroke-width="2" stroke-linecap="round"/>
</svg>

