<svg width="13" height="13" viewBox="0 0 13 13" fill="none" xmlns="http://www.w3.org/2000/svg">
    <path d="M5.54651 0.692738C5.84663 -0.230932 7.15337 -0.230933 7.45349 0.692737L8.30071 3.30021C8.43493 3.71329 8.81987 3.99296 9.2542 3.99296H11.9959C12.9671 3.99296 13.3709 5.23575 12.5852 5.80661L10.3671 7.41812C10.0157 7.67341 9.86869 8.12594 10.0029 8.53901L10.8501 11.1465C11.1502 12.0702 10.0931 12.8382 9.30734 12.2674L7.08929 10.6559C6.73791 10.4006 6.26209 10.4006 5.91071 10.6559L3.69266 12.2674C2.90694 12.8382 1.84976 12.0702 2.14988 11.1465L2.9971 8.53901C3.13131 8.12594 2.98428 7.67341 2.6329 7.41812L0.414849 5.80661C-0.370871 5.23575 0.0329349 3.99296 1.00414 3.99296H3.7458C4.18013 3.99296 4.56507 3.71329 4.69929 3.30021L5.54651 0.692738Z" fill="#F4C954"/>
</svg>

