<svg width="22" height="22" viewBox="0 0 22 22" fill="none" xmlns="http://www.w3.org/2000/svg">
    <path d="M9.89785 2.62673C10.2007 2.35463 10.5935 2.2041 11.0006 2.2041C11.4077 2.2041 11.8005 2.35463 12.1033 2.62673L18.1533 8.06293C18.3254 8.21762 18.4629 8.40675 18.5571 8.61805C18.6513 8.82935 18.7 9.05809 18.7 9.28943V17.0499C18.7 17.4875 18.5262 17.9072 18.2168 18.2167C17.9073 18.5261 17.4877 18.6999 17.05 18.6999H14.3C13.8624 18.6999 13.4428 18.5261 13.1333 18.2167C12.8239 17.9072 12.65 17.4875 12.65 17.0499V13.1999C12.65 13.0541 12.5921 12.9142 12.489 12.811C12.3858 12.7079 12.2459 12.6499 12.1 12.6499H9.90005C9.75418 12.6499 9.61428 12.7079 9.51114 12.811C9.40799 12.9142 9.35005 13.0541 9.35005 13.1999V17.0499C9.35005 17.4875 9.17621 17.9072 8.86678 18.2167C8.55734 18.5261 8.13766 18.6999 7.70005 18.6999H4.95005C4.51244 18.6999 4.09276 18.5261 3.78332 18.2167C3.47389 17.9072 3.30005 17.4875 3.30005 17.0499V9.28943C3.30005 8.82193 3.49805 8.37643 3.84785 8.06293L9.89785 2.62673ZM11.3674 3.44513C11.2665 3.35453 11.1357 3.30442 11 3.30442C10.8644 3.30442 10.7336 3.35453 10.6326 3.44513L4.58265 8.88133C4.52534 8.93278 4.47947 8.99569 4.44801 9.06599C4.41656 9.13629 4.40022 9.21241 4.40005 9.28943V17.0499C4.40005 17.1958 4.458 17.3357 4.56114 17.4388C4.66429 17.542 4.80418 17.5999 4.95005 17.5999H7.70005C7.84592 17.5999 7.98581 17.542 8.08896 17.4388C8.1921 17.3357 8.25005 17.1958 8.25005 17.0499V13.1999C8.25005 12.7623 8.42389 12.3426 8.73332 12.0332C9.04276 11.7238 9.46244 11.5499 9.90005 11.5499H12.1C12.5377 11.5499 12.9573 11.7238 13.2668 12.0332C13.5762 12.3426 13.75 12.7623 13.75 13.1999V17.0499C13.75 17.1958 13.808 17.3357 13.9111 17.4388C14.0143 17.542 14.1542 17.5999 14.3 17.5999H17.05C17.1959 17.5999 17.3358 17.542 17.439 17.4388C17.5421 17.3357 17.6 17.1958 17.6 17.0499V9.28943C17.5999 9.21241 17.5835 9.13629 17.5521 9.06599C17.5206 8.99569 17.4748 8.93278 17.4174 8.88133L11.3674 3.44513Z" fill="black"/>
</svg>

