<svg width="21" height="24" viewBox="0 0 21 24" fill="none" xmlns="http://www.w3.org/2000/svg">
    <path d="M3.6867 23.9999H17.5067C19.6198 23.9999 20.8412 22.779 20.8412 20.3598V8.20753C20.8412 5.78881 19.6083 4.56742 17.154 4.56742H15.2874C15.2172 2.1016 13.08 0 10.4264 0C7.76116 0 5.62399 2.1016 5.55335 4.56742H3.6872C1.24493 4.56742 0 5.77678 0 8.20753V20.3603C0 22.7905 1.24493 23.9999 3.6872 23.9999M10.4264 1.78499C12.0816 1.78499 13.3381 3.02992 13.3972 4.56792H7.45556C7.50265 3.02992 8.75911 1.78499 10.4264 1.78499ZM3.72177 22.1097C2.54748 22.1097 1.89019 21.4875 1.89019 20.2666V8.30121C1.89019 7.08033 2.54748 6.45761 3.72177 6.45761H17.131C18.2812 6.45761 18.9505 7.08033 18.9505 8.30121V20.2661C18.9505 21.4875 18.2812 22.1097 17.4711 22.1097H3.72177Z" fill="black"/>
</svg>

