<svg width="90" height="40" viewBox="0 0 90 40" fill="none" xmlns="http://www.w3.org/2000/svg">
    <path fill-rule="evenodd" clip-rule="evenodd" d="M8.75241 5.57229C0.737684 10.8974 1.20881 29.4526 9.47356 33.9886C14.5944 36.7982 20.0445 34.3431 23.222 27.7953C25.9402 22.1942 24.5319 14.0584 22.9673 10.8489C19.8309 4.41105 13.8434 2.18854 8.75241 5.57229ZM9.77147 14.1821C7.22926 21.2773 13.2437 30.524 16.606 25.6454C18.1705 23.3754 18.2722 14.4455 16.7506 12.8308C14.9575 10.9281 10.752 11.4478 9.77147 14.1821Z" fill="black" fill-opacity="0.976"/>
    <path d="M29.9571 33.6773C28.6218 32.3613 28.2931 30.3485 28.3835 24.0277C27.6544 17.7229 28.096 4.89065 35.6949 4C38.0236 4.00019 39.1843 6.51303 40.8148 8.26908C43.0041 10.6271 43.0042 11.2166 45.1935 8.26908C47.3829 5.32157 50.667 4.14258 52.8564 5.32157C53.8528 6.07274 54.4864 6.92157 54.8147 7.8966L56.6228 18.9245C57.8162 27.3351 57.5312 32.9288 55.2735 34.7664C53.3126 36.3608 51.042 33.0076 50.2567 29.1581C49.3547 24.737 48.3912 25.3865 46.1825 31.2762C44.5126 35.7294 40.5508 36.1523 38.8916 30.7305C37.5659 26.3983 36.2054 24.5829 35.0742 30.1315C34.2214 34.3148 32.0987 35.7855 29.9571 33.6773Z" fill="black"/>
    <path d="M46.1824 31.2762C44.1976 36.5263 40.0591 35.1728 38.9458 31.2762C38.3034 29.0277 38.1732 28.6795 37.8325 27.9362C33.0682 17.5423 27.247 9.54301 32.8225 5.01719C37.2828 2.18855 38.6252 5.91109 40.8146 8.26908C43.004 10.6271 43.004 11.2166 45.1934 8.26908C47.3827 5.32157 50.6668 4.14258 52.8562 5.32157C58.3297 9.44807 53.0859 16.527 46.1824 31.2762Z" fill="#D34D3A"/>
    <path d="M71.4522 8.83476C72.0315 11.9771 72.3211 15.1309 72.3211 18.2961C72.3211 21.8742 71.9504 25.2689 71.2089 28.48C70.0735 32.9297 70.1604 35.1545 67.0033 35.1545C63.8462 35.1545 63.8751 32.8838 62.6934 28.3424C61.8592 24.856 61.4421 21.3008 61.4421 17.6768C61.4421 14.4886 61.7781 11.5413 62.4501 8.83476C63.377 5.62363 64.9063 4.01807 67.0381 4.01807C69.2857 4.01807 70.7571 5.62363 71.4522 8.83476Z" fill="black" fill-opacity="0.976"/>
    <path fill-rule="evenodd" clip-rule="evenodd" d="M77.4412 10.1593C79.5356 13.3377 84.607 13.1509 86.3911 9.87328C87.4962 7.8425 86.5305 5.68112 83.9552 4.42099C82.7637 3.83792 80.7789 3.90155 79.5165 4.522C76.9844 5.76584 76.1103 8.14033 77.4412 10.1593ZM76.8712 26.2184C76.8712 16.8239 77.1147 15.4915 79.0492 14.3142C81.5829 13.0766 83.2661 13.0766 84.579 14.401C88.8766 20.0791 87.1935 35.1546 81.574 35.1546C79.4232 35.1546 76.8712 33.909 76.8712 26.2184Z" fill="black" fill-opacity="0.976"/>
</svg>

