<svg width="24" height="24" viewBox="0 0 24 24" fill="none" xmlns="http://www.w3.org/2000/svg">
    <path d="M11.9998 20.1601C7.48784 20.1601 3.83984 16.5121 3.83984 12.0001C3.83984 7.48809 7.48784 3.84009 11.9998 3.84009C16.5118 3.84009 20.1598 7.48809 20.1598 12.0001C20.1598 16.5121 16.5118 20.1601 11.9998 20.1601ZM11.9998 4.80009C8.01584 4.80009 4.79984 8.01609 4.79984 12.0001C4.79984 15.9841 8.01584 19.2001 11.9998 19.2001C15.9838 19.2001 19.1998 15.9841 19.1998 12.0001C19.1998 8.01609 15.9838 4.80009 11.9998 4.80009Z" fill="#828282"/>
    <path d="M9.50352 9.40803C9.64752 9.02403 9.79152 8.73603 10.0795 8.49603C10.3195 8.25603 10.6075 8.06403 10.9915 7.92003C11.3755 7.77603 11.7595 7.72803 12.1915 7.72803C12.5275 7.72803 12.8635 7.77603 13.1515 7.87203C13.4395 7.96803 13.7275 8.11203 13.9675 8.30403C14.2075 8.49603 14.3995 8.73603 14.4955 9.02403C14.6395 9.31203 14.6875 9.64803 14.6875 9.98403C14.6875 10.464 14.5915 10.848 14.3995 11.184C14.2075 11.52 13.9195 11.808 13.6315 12.144L13.0075 12.768C12.8635 12.912 12.7195 13.056 12.6715 13.2C12.5755 13.344 12.5275 13.536 12.5275 13.728C12.4795 13.92 12.4795 14.064 12.4795 14.448H11.7115C11.7115 14.064 11.7115 13.92 11.7595 13.632C11.8075 13.392 11.9035 13.152 11.9995 12.912C12.0955 12.72 12.2395 12.528 12.4315 12.336C12.6235 12.144 12.8635 11.952 13.1035 11.664C13.3435 11.424 13.5355 11.184 13.6795 10.944C13.8955 10.584 13.9195 10.368 13.9195 10.08C13.9195 9.84003 13.8715 9.60003 13.7755 9.40803C13.6795 9.21603 13.5355 9.02403 13.3915 8.88003C13.2475 8.73603 13.0555 8.64003 12.8155 8.54403C12.5755 8.44803 12.3835 8.40003 12.1435 8.40003C11.8075 8.40003 11.5195 8.44803 11.2795 8.59203C11.0395 8.68803 10.7995 8.88003 10.6555 9.07203C10.5115 9.26403 10.3675 9.50403 10.2715 9.79203C10.1755 10.08 10.0795 10.224 10.0795 10.56H9.31152C9.31152 10.128 9.35952 9.79203 9.50352 9.40803ZM12.4795 15.36V16.32H11.5195V15.36H12.4795Z" fill="#828282"/>
</svg>

