<svg width="18" height="18" viewBox="0 0 18 18" fill="none" xmlns="http://www.w3.org/2000/svg">
    <path d="M14.1974 1.45825C13.978 1.45825 13.7657 1.54403 13.6068 1.70294C12.2624 3.04731 11.0839 3.30185 9.37816 3.30185C8.86066 3.30185 8.29253 3.27653 7.69066 3.24981C7.21675 3.22872 6.72738 3.20763 6.19863 3.19356C6.10582 3.19075 6.01441 3.19075 5.92441 3.19075C1.61144 3.19075 0.230503 5.79935 0.174253 5.91044C0.101583 6.05316 0.0713263 6.21371 0.0870651 6.3731L1.03207 15.7879C1.0475 15.9412 1.10488 16.0873 1.19791 16.2101C1.29094 16.3329 1.41602 16.4277 1.55941 16.484C1.65624 16.5218 1.75922 16.5413 1.86316 16.5417C2.06425 16.5417 2.26253 16.4686 2.41863 16.3293C2.43269 16.3167 4.1666 14.8345 6.9355 14.8345C7.28988 14.8345 7.65128 14.8584 8.00988 14.9062C9.31347 15.0792 10.2641 15.1565 11.0966 15.1565C13.7586 15.1565 15.7274 14.2987 17.6807 12.2906C17.7847 12.1831 17.8581 12.0498 17.8932 11.9044C17.9283 11.759 17.9239 11.6068 17.8803 11.4637L14.9961 2.04888C14.9538 1.91113 14.8768 1.78661 14.7723 1.68734C14.6679 1.58806 14.5396 1.5174 14.3999 1.48216C14.3324 1.46669 14.2649 1.45825 14.1974 1.45825Z" fill="white"/>
    <mask id="mask0_476_568" style="mask-type:luminance" maskUnits="userSpaceOnUse" x="0" y="1" width="18" height="16">
        <path d="M14.1974 1.45825C13.978 1.45825 13.7657 1.54403 13.6068 1.70294C12.2624 3.04731 11.0839 3.30185 9.37816 3.30185C8.86066 3.30185 8.29253 3.27653 7.69066 3.24981C7.21675 3.22872 6.72738 3.20763 6.19863 3.19356C6.10582 3.19075 6.01441 3.19075 5.92441 3.19075C1.61144 3.19075 0.230503 5.79935 0.174253 5.91044C0.101583 6.05316 0.0713263 6.21371 0.0870651 6.3731L1.03207 15.7879C1.0475 15.9412 1.10488 16.0873 1.19791 16.2101C1.29094 16.3329 1.41602 16.4277 1.55941 16.484C1.65624 16.5218 1.75922 16.5413 1.86316 16.5417C2.06425 16.5417 2.26253 16.4686 2.41863 16.3293C2.43269 16.3167 4.1666 14.8345 6.9355 14.8345C7.28988 14.8345 7.65128 14.8584 8.00988 14.9062C9.31347 15.0792 10.2641 15.1565 11.0966 15.1565C13.7586 15.1565 15.7274 14.2987 17.6807 12.2906C17.7847 12.1831 17.8581 12.0498 17.8932 11.9044C17.9283 11.759 17.9239 11.6068 17.8803 11.4637L14.9961 2.04888C14.9538 1.91113 14.8768 1.78661 14.7723 1.68734C14.6679 1.58806 14.5396 1.5174 14.3999 1.48216C14.3324 1.46669 14.2649 1.45825 14.1974 1.45825Z" fill="white"/>
    </mask>
    <g mask="url(#mask0_476_568)">
        <path d="M8.45297 15.5671C12.195 15.8582 14.7192 16.5416 18.2222 12.5155L16.9059 7.2168C13.7672 10.7437 11.7956 10.7507 7.53891 10.3302C3.9375 9.97445 1.43859 12.292 0.527344 13.1062L1.12219 18.3332C2.60156 17.1027 4.82625 15.2845 8.45297 15.5671Z" fill="#E74600"/>
    </g>
    <mask id="mask1_476_568" style="mask-type:luminance" maskUnits="userSpaceOnUse" x="0" y="1" width="18" height="16">
        <path d="M14.1974 1.45825C13.978 1.45825 13.7657 1.54403 13.6068 1.70294C12.2624 3.04731 11.0839 3.30185 9.37816 3.30185C8.86066 3.30185 8.29253 3.27653 7.69066 3.24981C7.21675 3.22872 6.72738 3.20763 6.19863 3.19356C6.10582 3.19075 6.01441 3.19075 5.92441 3.19075C1.61144 3.19075 0.230503 5.79935 0.174253 5.91044C0.101583 6.05316 0.0713263 6.21371 0.0870651 6.3731L1.03207 15.7879C1.0475 15.9412 1.10488 16.0873 1.19791 16.2101C1.29094 16.3329 1.41602 16.4277 1.55941 16.484C1.65624 16.5218 1.75922 16.5413 1.86316 16.5417C2.06425 16.5417 2.26253 16.4686 2.41863 16.3293C2.43269 16.3167 4.1666 14.8345 6.9355 14.8345C7.28988 14.8345 7.65128 14.8584 8.00988 14.9062C9.31347 15.0792 10.2641 15.1565 11.0966 15.1565C13.7586 15.1565 15.7274 14.2987 17.6807 12.2906C17.7847 12.1831 17.8581 12.0498 17.8932 11.9044C17.9283 11.759 17.9239 11.6068 17.8803 11.4637L14.9961 2.04888C14.9538 1.91113 14.8768 1.78661 14.7723 1.68734C14.6679 1.58806 14.5396 1.5174 14.3999 1.48216C14.3324 1.46669 14.2649 1.45825 14.1974 1.45825Z" fill="white"/>
    </mask>
    <g mask="url(#mask1_476_568)">
        <path d="M7.6777 10.8534C11.3129 11.1459 13.7654 11.828 17.1699 7.80188L16.0533 3.69141C13.0046 7.21828 11.0879 7.22531 6.95207 6.80344C3.45332 6.44625 1.02613 8.76516 0.141602 9.57797L0.556445 13.6167C1.99223 12.3891 4.15363 10.5708 7.6777 10.8534Z" fill="#00538B"/>
    </g>
</svg>

