<svg width="90" height="90" viewBox="0 0 90 90" fill="none" xmlns="http://www.w3.org/2000/svg">
    <path d="M25.67 5.625C25.67 16.037 29.1261 33.6846 46.4063 35.1235C38.1118 37.282 22.6287 44.4767 27.0524 67.5C26.8635 53.8299 20.1404 35.1235 5.625 37.282C13.4587 36.3227 28.4349 28.6483 25.67 5.625Z" stroke="#FFCE5C" stroke-width="2" stroke-linejoin="round"/>
    <path d="M51.3281 49.2188C51.3281 55.9896 52.6562 65.0625 63.2812 66.1458C57.3047 68.1771 50.6641 76.9792 51.3281 85.7812C50.6641 79.0104 49.3359 67.5 39.375 67.5C44.0234 67.0486 51.9922 62.7604 51.3281 49.2188Z" stroke="#FFCE5C" stroke-width="2" stroke-linejoin="round"/>
    <path d="M71.3973 21.0938C71.3973 26.1051 68.6491 36.9869 57.6562 40.4233C62.7455 41.8551 72.7714 47.8687 72.1607 60.4687C72.9241 58.321 72.1607 40.4233 84.375 39.7074C76.7411 38.2756 70.7866 32.5483 71.3973 21.0938Z" stroke="#FFCE5C" stroke-width="2" stroke-linejoin="round"/>
</svg>

