<svg width="110" height="110" viewBox="0 0 110 110" fill="none" xmlns="http://www.w3.org/2000/svg">
    <path d="M31.3745 6.875C31.3745 19.6008 35.5985 41.1701 56.7188 42.9288C46.581 45.5669 27.6573 54.3605 33.0641 82.5C32.8331 65.7922 24.616 42.9288 6.875 45.5669C16.4495 44.3944 34.7537 35.0145 31.3745 6.875Z" stroke="#EBA47B" stroke-width="4" stroke-linejoin="round"/>
    <path d="M62.7344 60.1562C62.7344 68.4317 64.3576 79.5208 77.3438 80.8449C70.0391 83.3275 61.9227 94.0856 62.7344 104.844C61.9227 96.5683 60.2995 82.5 48.125 82.5C53.8064 81.9483 63.546 76.7072 62.7344 60.1562Z" stroke="#EBA47B" stroke-width="4" stroke-linejoin="round"/>
    <path d="M87.2634 25.7812C87.2634 31.9062 83.9045 45.2062 70.4688 49.4062C76.689 51.1562 88.9429 58.5062 88.1964 73.9062C89.1295 71.2812 88.1964 49.4062 103.125 48.5312C93.7946 46.7812 86.517 39.7812 87.2634 25.7812Z" stroke="#EBA47B" stroke-width="4" stroke-linejoin="round"/>
</svg>

